<?xml version="1.0" encoding="utf-8"?>
<!-- Generator: Adobe Illustrator 28.1.0, SVG Export Plug-In . SVG Version: 6.00 Build 0)  -->
<svg version="1.1" xmlns="http://www.w3.org/2000/svg" xmlns:xlink="http://www.w3.org/1999/xlink" x="0px" y="0px"
	 viewBox="0 0 1100.52 299.12" style="enable-background:new 0 0 1100.52 299.12;" xml:space="preserve">
<style type="text/css">
	.st0{fill:#FFFFFF;}
	.st1{fill:#EF9B38;}
</style>
<g id="Capa_1">
	<g>
		<g>
			<g>
				<path class="st0" d="M104.08,179.45V72.88h53.28c9.54,19.37,19.07,38.9,26.03,53.89h1.06c-0.76-8.93-0.91-25.73-0.91-43.44
					V72.88h41.17v106.56h-50.86c-7.42-14.99-22.1-48.13-28.91-62.67h-0.91c1.21,10.6,1.36,22.86,1.36,47.38v15.29H104.08z"/>
				<path class="st0" d="M283.9,164.31l-3.78,15.14h-45.41l36.63-106.56h61.3l39.96,106.56h-49.65l-4.09-15.14H283.9z
					 M310.24,135.55c-2.72-11.5-5.75-23.61-8.63-33.6h-1.21c-2.12,9.99-5.75,23.92-8.17,33.6H310.24z"/>
				<path class="st0" d="M426.34,141.76v37.69h-45.26V72.88h73.41c28.91,0,42.53,13.62,42.53,30.27c0,13.32-7.27,22.1-18.47,26.19
					c9.38,3.94,15.44,11.2,15.44,27.09v6.36c0,4.09,0.3,11.35,1.67,16.65h-44.65c-1.66-4.09-2.27-11.81-2.27-21.34v-3.78
					c0-10.29-2.57-12.56-13.32-12.56H426.34z M426.34,117.39h13.32c5.3,0,11.35-1.97,11.35-8.78c0-5.9-4.54-8.93-11.66-8.93h-13.02
					V117.39z"/>
				<path class="st0" d="M633.86,140.09c-5.15,29.21-28.46,42.08-62.97,42.08c-41.02,0-63.88-22.55-63.88-56.31
					c0-29.82,18.62-55.7,65.24-55.7c41.78,0,59.49,19.53,62.06,41.47h-46.77c-1.21-7.57-4.24-14.53-15.14-14.53
					c-11.05,0-16.35,9.23-16.35,28.61c0,13.93,2.57,28.31,16.35,28.31c10.75,0,14.08-6.36,15.74-13.93H633.86z"/>
				<path class="st0" d="M776.59,126.17c0,31.33-20.43,56.01-66.9,56.01c-41.93,0-64.63-24.22-64.63-55.85
					c0-29.52,18.31-56.16,66.6-56.16C751.16,70.16,776.59,93.62,776.59,126.17z M694.1,125.41c0,16.65,3.63,28.61,17.26,28.61
					c13.32,0,16.2-11.96,16.2-27.7c0-19.07-3.48-29.21-16.95-29.21C698.49,97.1,694.1,107.24,694.1,125.41z"/>
				<path class="st0" d="M789.07,78.33h35.2v9.96h-24.44v32.92h23.05v9.96h-23.05v48.27h-10.76V78.33z"/>
				<path class="st0" d="M844.33,78.33v101.11h-10.76V78.33H844.33z"/>
				<path class="st0" d="M859.3,78.33h10.76v91.43h25.43l-1.2,9.69H859.3V78.33z"/>
				<path class="st0" d="M935.66,130.49h-22.68v39.07h25.75l-1.46,9.89h-35.05V78.33h34.73v9.96h-23.97v32.3h22.68V130.49z"/>
				<path class="st0" d="M955.53,150.98v5.86c0,9.52,3.29,14.61,10.38,14.61c7.24,0,10.1-5.24,10.1-16.32
					c0-11.83-2.6-16.43-13.25-24.73c-10.82-8.46-16.31-13.57-16.31-28.47c0-12.81,3.84-25.1,19.7-25.02
					c15.05,0.08,19.03,10.1,19.03,22.94v4.69h-10.69v-4.4c0-8.39-1.64-13.82-8.56-13.82c-6.94,0-8.72,6.08-8.72,14.01
					c0,9.4,1.87,12.96,11.15,19.98c14.04,10.61,18.48,16.53,18.48,33.31c0,14.21-4.06,27.16-21.12,27.16
					c-16.32,0-20.94-10.69-20.94-24.01v-5.81H955.53z"/>
			</g>
		</g>
	</g>
</g>
<g id="Capa_2">
	<g>
		<g>
			<g>
				<path class="st1" d="M272.46,213.18h-8.77v16.8h9.87l-0.4,2.6h-12.29v-38.56h12.12v2.6h-9.29v13.97h8.77V213.18z"/>
				<path class="st1" d="M277.13,194.02h2.83v35.96h9.7l-0.4,2.6h-12.12V194.02z"/>
				<path class="st1" d="M300.51,232.58v-38.56h3.52l7.56,26.38c0.87,3.12,1.33,5.37,1.56,6.87h0.12
					c-0.17-5.48-0.29-10.91-0.29-17.14v-16.1h2.77v38.56h-3.41l-8.43-30.01c-0.58-1.96-0.81-3.41-0.98-4.39h-0.06
					c0.23,4.62,0.4,11.43,0.4,18.41v15.99H300.51z"/>
				<path class="st1" d="M324.41,194.02v30.42c0,3.41,1.27,6,4.56,6c3.35,0,4.56-2.25,4.56-5.94v-30.48h2.89v30.3
					c0,5.89-2.66,8.72-7.5,8.72c-4.79,0-7.33-2.77-7.33-8.6v-30.42H324.41z"/>
				<path class="st1" d="M353.85,213.18h-8.77v16.8h9.87l-0.4,2.6h-12.29v-38.56h12.12v2.6h-9.29v13.97h8.77V213.18z"/>
				<path class="st1" d="M360.02,194.02l2.89,18.41c0.92,5.48,2.25,12.87,2.6,16.57h0.06c0.29-3.64,1.67-11.02,2.54-16.45
					l3.12-18.53h3l-6.87,38.56h-3.69l-6.7-38.56H360.02z"/>
				<path class="st1" d="M392.23,202.97v20.43c0,6.35-2.54,9.64-7.73,9.64c-5.77,0-7.5-3.92-7.5-9.64v-20.38
					c0-6,2.48-9.47,7.68-9.47C390.27,193.56,392.23,197.77,392.23,202.97z M379.88,203.02v20.43c0,5.14,1.85,7.04,4.73,7.04
					c3.06,0,4.73-1.9,4.73-7.27v-20.14c0-4.79-1.73-6.93-4.79-6.93C381.38,196.16,379.88,198.18,379.88,203.02z"/>
				<path class="st1" d="M419.71,202.97v20.43c0,6.35-2.54,9.64-7.73,9.64c-5.77,0-7.5-3.92-7.5-9.64v-20.38
					c0-6,2.48-9.47,7.68-9.47C417.74,193.56,419.71,197.77,419.71,202.97z M407.35,203.02v20.43c0,5.14,1.85,7.04,4.73,7.04
					c3.06,0,4.73-1.9,4.73-7.27v-20.14c0-4.79-1.73-6.93-4.79-6.93C408.85,196.16,407.35,198.18,407.35,203.02z"/>
				<path class="st1" d="M425.02,194.02h5.71c5.77,0,8.2,2.6,8.2,8.6v1.96c0,4.73-1.44,7.33-3.92,8.14
					c2.54,0.81,3.58,2.83,3.58,7.91c0,3.35-0.06,9.47,0.4,11.95h-2.77c-0.46-2.48-0.4-9.06-0.4-11.66c0-5.19-0.81-6.87-4.85-6.87
					h-3.12v18.53h-2.83V194.02z M427.85,211.57h3.35c4.04,0,4.85-2.77,4.85-6.87v-1.96c0-3.92-1.21-6.23-5.43-6.23h-2.77V211.57z"/>
				<path class="st1" d="M443.89,194.02h6.18c8.43,0,8.83,5.77,8.83,11.2v15.53c0,5.94-0.87,11.83-9.29,11.83h-5.71V194.02z
					 M446.72,230.04h2.66c5.19,0,6.64-2.71,6.64-8.48V204.7c0-5.08-0.92-8.14-6.58-8.14h-2.71V230.04z"/>
				<path class="st1" d="M475.81,213.18h-8.77v16.8h9.87l-0.4,2.6h-12.29v-38.56h12.12v2.6h-9.29v13.97h8.77V213.18z"/>
				<path class="st1" d="M480.49,232.58v-38.56h3.52l7.56,26.38c0.87,3.12,1.33,5.37,1.56,6.87h0.12
					c-0.17-5.48-0.29-10.91-0.29-17.14v-16.1h2.77v38.56h-3.41l-8.43-30.01c-0.58-1.96-0.81-3.41-0.98-4.39h-0.06
					c0.23,4.62,0.4,11.43,0.4,18.41v15.99H480.49z"/>
			</g>
		</g>
		<g>
			<path class="st1" d="M559.64,220.6c-1.67,8.07-8.64,13.42-21.12,13.42c-14.89,0-22.09-8.54-22.09-19.74
				c0-10.93,7.11-20.31,22.73-20.31c13.36,0,19.45,6.6,20.34,13.28h-13.22c-0.61-2.79-2.5-5.33-7.43-5.33
				c-6.48,0-8.69,5.22-8.69,11.96c0,6.12,1.84,12.17,8.83,12.17c5.3,0,6.78-3.27,7.35-5.45H559.64z"/>
			<path class="st1" d="M578.94,218.71v14.59H566v-38.61h22.53c10.71,0,15.89,4.87,15.89,10.69c0,5.33-3.67,8.06-6.83,9.16
				c2.87,0.85,5.93,3.43,5.93,9.96v1.61c0,2.4,0.09,5.52,0.59,7.19h-12.7c-0.77-1.66-0.97-4.46-0.97-8.43v-1
				c0-3.33-0.94-5.16-6.82-5.16H578.94z M578.94,210.82h6.16c4.44,0,6.06-1.57,6.06-4.16c0-2.58-1.92-4.09-5.99-4.09h-6.23V210.82z"
				/>
			<path class="st1" d="M625.12,194.69v38.61h-13.36v-38.61H625.12z"/>
			<path class="st1" d="M672.5,220.7c0-6.03,0.16-13.81,0.35-18.4h-0.35c-1.9,8.28-4.96,19.75-8.29,30.99h-10.67
				c-2.61-10.91-5.6-22.4-7.37-30.99h-0.4c0.37,4.54,0.62,12.08,0.62,18.69v12.29h-11.86v-38.61h19.18
				c2.24,7.81,4.86,19.14,5.88,24.85h0.23c1.17-6.21,4.2-16.45,6.85-24.85h18.63v38.61h-12.8V220.7z"/>
			<path class="st1" d="M708.04,194.69v38.61h-13.36v-38.61H708.04z"/>
			<path class="st1" d="M717.45,233.3v-38.61h15.94c4.78,8.7,11.71,20.45,13.62,25.2h0.22c-0.51-4.01-0.62-10.83-0.62-16.99v-8.21
				h12.14v38.61h-15.19c-3.86-6.99-12.08-21.48-14.22-26.57h-0.18c0.42,3.63,0.46,11.11,0.46,17.9v8.67H717.45z"/>
			<path class="st1" d="M779.65,225.79l-2.63,7.51h-12.98l14.37-38.61h17.25l14.94,38.61h-13.91l-2.76-7.51H779.65z M791.58,217.4
				c-2.14-6.07-3.89-11.46-4.91-15.23h-0.18c-1.05,4.16-2.79,9.67-4.63,15.23H791.58z"/>
		</g>
		<g>
			<polygon class="st1" points="828.73,224.91 828.73,194.69 815.37,194.69 815.37,233.3 850.16,233.3 850.16,224.91 			"/>
		</g>
	</g>
</g>
</svg>
